<svg xmlns="http://www.w3.org/2000/svg" viewBox="0 0 104.8 104.8">
    <g id="Layer_2" style="isolation: isolate;">
        <g id="Layer_1-2">
            <g style="isolation: isolate;">
                <path style="fill: #306060;"
                    d="M98,78.28c-.13.25-.28.5-.42.74s-.33.55-.5.82c-.72,1.19-1.49,2.34-2.31,3.44l-1,1.27a51.58,51.58,0,0,1-6.39,6.87l-.17.15A52.45,52.45,0,0,1,33,101.08a47.62,47.62,0,0,1-4.5-2c-.93-.47-1.85-1-2.76-1.51a53.48,53.48,0,0,1-5.52-3.75C19.12,92.89,18,92,17,91l-.44-.41A52.4,52.4,0,0,1,6.3,27.51c.31-.59.64-1.16,1-1.74.49-.82,1-1.63,1.52-2.41.68-1,1.39-2,2.16-3l.4-.53c.3-.38.59-.75.91-1.12.89-1.07,1.82-2.1,2.79-3.07L17.91,13l.53-.47c.8-.68,1.61-1.33,2.45-1.94l.41-.32h0A52.4,52.4,0,0,1,98,78.28Z" />
            </g>
            <path style="fill: #f1f2f2;" d="M98,78.28c-.13.25-.28.5-.42.74s-.33.55-.5.82c-.81-.07-1.61-.17-2.39-.29a.88.88,0,1,1,.26-1.75c.85.12,1.72.22,2.6.31A1,1,0,0,1,98,78.28Z" />
            <path style="fill: #f1f2f2;" d="M93.83,80a.25.25,0,0,1,0,.08.88.88,0,0,1-1,.71c-.89-.16-1.78-.34-2.64-.54a.89.89,0,1,1,.4-1.73c.83.19,1.7.37,2.56.53A.88.88,0,0,1,93.83,80Z" />
            <path style="fill: #f1f2f2;" d="M89.31,80.6a.37.37,0,0,1,0,.15.87.87,0,0,1-1.08.63c-.88-.24-1.75-.5-2.59-.77a.89.89,0,1,1,.55-1.69c.82.27,1.66.52,2.5.75A.88.88,0,0,1,89.31,80.6Z" />
            <path style="fill: #f1f2f2;" d="M84.76,80.78a.68.68,0,0,1-.05.23.88.88,0,0,1-1.13.52c-.85-.3-1.69-.64-2.52-1a.89.89,0,0,1,.7-1.63q1.2.51,2.43,1A.88.88,0,0,1,84.76,80.78Z" />
            <path style="fill: #f1f2f2;" d="M80.22,80.56a.8.8,0,0,1-.09.3.88.88,0,0,1-1.18.43c-.81-.39-1.63-.79-2.41-1.21a.89.89,0,1,1,.83-1.57c.76.41,1.55.8,2.34,1.17A.89.89,0,0,1,80.22,80.56Z" />
            <path style="fill: #f1f2f2;" d="M75.7,80a1,1,0,0,1-.12.36.88.88,0,0,1-1.21.32c-.77-.44-1.55-.92-2.31-1.41a.89.89,0,0,1,1-1.49c.74.48,1.49.94,2.24,1.37A.9.9,0,0,1,75.7,80Z" />
            <path style="fill: #f1f2f2;"
                d="M71.24,79a1,1,0,0,1-.16.43.88.88,0,0,1-1.23.22c-.74-.51-1.47-1-2.18-1.59a.89.89,0,0,1-.16-1.25.88.88,0,0,1,1.24-.16c.69.53,1.4,1,2.11,1.54A.91.91,0,0,1,71.24,79Z" />
            <path style="fill: #f1f2f2;" d="M66.89,77.62a.89.89,0,0,1-1.45.6c-.68-.56-1.37-1.15-2-1.76a.89.89,0,0,1,1.19-1.32c.66.59,1.32,1.17,2,1.71A.91.91,0,0,1,66.89,77.62Z" />
            <path style="fill: #f1f2f2;"
                d="M62.65,75.93a.81.81,0,0,1-.24.54.88.88,0,0,1-1.25,0c-.65-.61-1.28-1.25-1.91-1.9a.89.89,0,1,1,1.28-1.23c.61.63,1.23,1.25,1.86,1.85A.87.87,0,0,1,62.65,75.93Z" />
            <path style="fill: #f1f2f2;" d="M58.56,73.94a.89.89,0,0,1-1.54.52q-.9-1-1.77-2a.88.88,0,0,1,1.36-1.13c.57.67,1.14,1.33,1.72,2A.86.86,0,0,1,58.56,73.94Z" />

            <path style="fill: #f1f2f2;"
                d="M54.61,71.68a.85.85,0,0,1-.33.61A.89.89,0,0,1,53,72.15c-.55-.7-1.09-1.42-1.63-2.15a.89.89,0,0,1,.2-1.24.89.89,0,0,1,1.24.2c.52.71,1,1.41,1.58,2.09A.86.86,0,0,1,54.61,71.68Z" />
            <path style="fill: #f1f2f2;" d="M50.82,69.16a.89.89,0,0,1-1.61.43c-.51-.74-1-1.48-1.49-2.24A.89.89,0,0,1,48,66.12a.9.9,0,0,1,1.23.27c.48.74,1,1.47,1.46,2.19A.86.86,0,0,1,50.82,69.16Z" />
            <path style="fill: #f1f2f2;"
                d="M47.19,66.42a.87.87,0,0,1-.42.68.89.89,0,0,1-1.22-.3c-.46-.76-.91-1.53-1.36-2.32a.88.88,0,0,1,.34-1.2.9.9,0,0,1,1.21.33c.43.77.87,1.53,1.33,2.27A.88.88,0,0,1,47.19,66.42Z" />
            <path style="fill: #f1f2f2;" d="M43.72,63.48a.86.86,0,0,1-.46.7.88.88,0,0,1-1.2-.36c-.42-.78-.83-1.58-1.24-2.38a.89.89,0,0,1,1.59-.8c.4.8.8,1.58,1.21,2.34A.82.82,0,0,1,43.72,63.48Z" />
            <path style="fill: #f1f2f2;" d="M40.42,60.36a.89.89,0,0,1-1.69.31c-.38-.81-.75-1.62-1.11-2.45a.88.88,0,0,1,.45-1.17.9.9,0,0,1,1.17.46c.36.81.72,1.61,1.1,2.4A1,1,0,0,1,40.42,60.36Z" />
            <path style="fill: #f1f2f2;" d="M37.27,57.09a.89.89,0,0,1-1.71.26q-.51-1.23-1-2.49a.88.88,0,1,1,1.65-.63c.32.82.65,1.64,1,2.44A.89.89,0,0,1,37.27,57.09Z" />
            <path style="fill: #f1f2f2;"
                d="M34.27,53.68a.87.87,0,0,1-.58.75.89.89,0,0,1-1.14-.53c-.3-.83-.6-1.67-.88-2.53a.88.88,0,0,1,.55-1.12.89.89,0,0,1,1.13.55q.42,1.26.87,2.49A.88.88,0,0,1,34.27,53.68Z" />
            <path style="fill: #f1f2f2;" d="M31.42,50.14a.88.88,0,0,1-.61.76.89.89,0,0,1-1.12-.57c-.27-.87-.53-1.73-.77-2.58a.89.89,0,0,1,1.71-.48c.23.83.49,1.67.76,2.52A1,1,0,0,1,31.42,50.14Z" />
            <path style="fill: #f1f2f2;" d="M18.44,12.48a.7.7,0,0,0,.24.21.89.89,0,0,0,1.22-.3c.44-.74.92-1.46,1.4-2.17h0Z" />
            <path style="fill: #f1f2f2;" d="M28.75,46.46A.89.89,0,0,1,27,46.6c-.23-.88-.43-1.76-.62-2.62a.89.89,0,1,1,1.73-.38c.18.84.38,1.69.61,2.56A1,1,0,0,1,28.75,46.46Z" />
            <path style="fill: #f1f2f2;" d="M20.57,14.16a.83.83,0,0,1-.1.34c-.41.76-.79,1.54-1.15,2.33a.88.88,0,1,1-1.61-.73c.37-.82.77-1.64,1.2-2.44a.88.88,0,0,1,1.66.5Z" />
            <path style="fill: #f1f2f2;" d="M26.3,42.62a.88.88,0,0,1-1.75.08c-.17-.9-.32-1.78-.45-2.66a.89.89,0,0,1,1.76-.25c.12.85.27,1.71.43,2.58A.71.71,0,0,1,26.3,42.62Z" />
            <path style="fill: #f1f2f2;" d="M20.21,18.6a1.14,1.14,0,0,1-.06.25c-.31.79-.6,1.62-.85,2.45a.89.89,0,0,1-1.7-.53c.27-.87.57-1.73.9-2.57a.89.89,0,0,1,1.15-.5A.9.9,0,0,1,20.21,18.6Z" />
            <path style="fill: #f1f2f2;" d="M24.12,38.62a.87.87,0,0,1-.78.8.9.9,0,0,1-1-.79c-.1-.89-.18-1.8-.24-2.69a.89.89,0,0,1,1.77-.11c.06.86.14,1.74.23,2.6A.6.6,0,0,1,24.12,38.62Z" />
            <path style="fill: #f1f2f2;"
                d="M20.39,23.06a.58.58,0,0,1,0,.14c-.21.83-.39,1.69-.55,2.54a.88.88,0,0,1-1,.71.9.9,0,0,1-.72-1c.17-.89.36-1.79.58-2.66a.9.9,0,0,1,1.08-.64A.89.89,0,0,1,20.39,23.06Z" />
            <path style="fill: #f1f2f2;" d="M22.28,34.44a.89.89,0,0,1-1.77,0c0-.91,0-1.82,0-2.71a.88.88,0,0,1,.91-.86.87.87,0,0,1,.86.91q0,1.29,0,2.61Z" />
            <path style="fill: #f1f2f2;" d="M21.09,27.47v0c-.12.85-.21,1.72-.27,2.59a.9.9,0,0,1-.95.82.89.89,0,0,1-.82-1c.07-.91.16-1.81.28-2.7a.9.9,0,0,1,1-.76A.88.88,0,0,1,21.09,27.47Z" />
            <path style="fill: #f1f2f2;" d="M94.72,83.28l-1,1.27c-.87-.08-1.74-.18-2.6-.31a.88.88,0,0,1-.75-1,.89.89,0,0,1,1-.75c.85.12,1.72.23,2.59.31A.85.85,0,0,1,94.72,83.28Z" />
            <path style="fill: #f1f2f2;"
                d="M90.36,84.72a.22.22,0,0,1,0,.08.88.88,0,0,1-1,.71c-.88-.16-1.78-.35-2.65-.56A.88.88,0,0,1,86,83.89a.89.89,0,0,1,1.07-.66c.85.2,1.7.38,2.56.54A.89.89,0,0,1,90.36,84.72Z" />
            <path style="fill: #f1f2f2;"
                d="M85.83,85.27a.5.5,0,0,1,0,.16.88.88,0,0,1-1.09.61c-.86-.24-1.73-.51-2.59-.8a.88.88,0,0,1-.55-1.12.89.89,0,0,1,1.12-.56c.83.28,1.67.54,2.5.77A.89.89,0,0,1,85.83,85.27Z" />
            <path style="fill: #f1f2f2;"
                d="M81.28,85.4a1.55,1.55,0,0,1,0,.23.9.9,0,0,1-1.15.52c-.84-.32-1.68-.67-2.5-1a.88.88,0,0,1-.45-1.17.9.9,0,0,1,1.17-.45c.79.36,1.6.69,2.41,1A.89.89,0,0,1,81.28,85.4Z" />
            <path style="fill: #f1f2f2;"
                d="M76.73,85.11a1.18,1.18,0,0,1-.08.31.9.9,0,0,1-1.19.41c-.8-.39-1.61-.81-2.4-1.26a.87.87,0,0,1-.34-1.2.89.89,0,0,1,1.2-.35c.77.43,1.55.84,2.32,1.21A.89.89,0,0,1,76.73,85.11Z" />
            <path style="fill: #f1f2f2;"
                d="M72.22,84.42a.88.88,0,0,1-1.34.68c-.76-.46-1.53-.95-2.28-1.46a.89.89,0,0,1-.24-1.23.88.88,0,0,1,1.23-.24c.73.49,1.47,1,2.21,1.41A.88.88,0,0,1,72.22,84.42Z" />
            <path style="fill: #f1f2f2;"
                d="M67.79,83.34a1,1,0,0,1-.17.44.89.89,0,0,1-1.24.19c-.72-.52-1.44-1.07-2.15-1.64A.89.89,0,0,1,65.34,81c.69.55,1.39,1.08,2.08,1.59A.91.91,0,0,1,67.79,83.34Z" />
            <path style="fill: #f1f2f2;" d="M63.46,81.9a.82.82,0,0,1-.21.5.89.89,0,0,1-1.25.09q-1-.87-2-1.8a.89.89,0,0,1,0-1.25.88.88,0,0,1,1.25,0c.65.6,1.3,1.18,2,1.75A.87.87,0,0,1,63.46,81.9Z" />
            <path style="fill: #f1f2f2;"
                d="M59.26,80.13a.85.85,0,0,1-.25.55.88.88,0,0,1-1.25,0c-.64-.63-1.26-1.28-1.88-1.94a.88.88,0,0,1,0-1.25.9.9,0,0,1,1.26.05c.59.64,1.2,1.27,1.82,1.89A.85.85,0,0,1,59.26,80.13Z" />
            <path style="fill: #f1f2f2;" d="M55.21,78.07a.88.88,0,0,1-1.55.5c-.59-.67-1.17-1.36-1.74-2.06a.89.89,0,1,1,1.38-1.12c.56.69,1.12,1.36,1.69,2A.86.86,0,0,1,55.21,78.07Z" />
            <path style="fill: #f1f2f2;" d="M51.3,75.74a.89.89,0,0,1-1.59.46c-.54-.71-1.08-1.43-1.6-2.16a.89.89,0,0,1,1.45-1c.51.72,1,1.42,1.56,2.11A.9.9,0,0,1,51.3,75.74Z" />
            <path style="fill: #f1f2f2;"
                d="M47.54,73.18a.84.84,0,0,1-.39.65.88.88,0,0,1-1.23-.24c-.5-.74-1-1.49-1.46-2.25a.88.88,0,0,1,.27-1.22A.89.89,0,0,1,46,70.4c.47.74.95,1.48,1.43,2.2A.88.88,0,0,1,47.54,73.18Z" />
            <path style="fill: #f1f2f2;"
                d="M43.94,70.4a.86.86,0,0,1-.43.68.88.88,0,0,1-1.21-.3c-.46-.77-.91-1.54-1.35-2.33a.89.89,0,0,1,.35-1.21.88.88,0,0,1,1.2.35q.64,1.16,1.32,2.28A.83.83,0,0,1,43.94,70.4Z" />
            <path style="fill: #f1f2f2;"
                d="M40.49,67.44a.87.87,0,0,1-.46.7.89.89,0,0,1-1.2-.37c-.42-.78-.83-1.58-1.23-2.39A.9.9,0,0,1,38,64.19a.88.88,0,0,1,1.18.41q.6,1.19,1.2,2.34A.81.81,0,0,1,40.49,67.44Z" />
            <path style="fill: #f1f2f2;" d="M37.2,64.3a.89.89,0,0,1-1.69.3c-.37-.8-.74-1.62-1.1-2.44A.89.89,0,0,1,34.87,61a.88.88,0,0,1,1.16.46c.36.81.72,1.61,1.09,2.4A.9.9,0,0,1,37.2,64.3Z" />
            <path style="fill: #f1f2f2;" d="M34.06,61a.89.89,0,0,1-1.71.27c-.34-.82-.67-1.66-1-2.49a.89.89,0,0,1,.51-1.15.88.88,0,0,1,1.14.51c.32.82.65,1.64,1,2.45A.85.85,0,0,1,34.06,61Z" />
            <path style="fill: #f1f2f2;" d="M31.06,57.61a.89.89,0,0,1-1.71.23c-.31-.84-.61-1.68-.9-2.53A.91.91,0,0,1,29,54.18a.89.89,0,0,1,1.12.56c.29.84.58,1.67.88,2.49A.85.85,0,0,1,31.06,57.61Z" />
            <path style="fill: #f1f2f2;" d="M28.21,54.08a.88.88,0,0,1-.61.76.89.89,0,0,1-1.12-.57c-.28-.87-.53-1.73-.78-2.58a.89.89,0,0,1,1.71-.48c.24.83.49,1.67.76,2.52A.82.82,0,0,1,28.21,54.08Z" />
            <path style="fill: #f1f2f2;" d="M18.25,13.73a.86.86,0,0,1-.15.43c-.5.71-1,1.44-1.42,2.18a.89.89,0,0,1-1.62-.7L17.91,13A.86.86,0,0,1,18.25,13.73Z" />
            <path style="fill: #f1f2f2;"
                d="M25.53,50.4a.89.89,0,0,1-.66.78.88.88,0,0,1-1.08-.64c-.23-.88-.44-1.75-.63-2.62a.89.89,0,0,1,.68-1.05.87.87,0,0,1,1.05.67c.19.84.39,1.7.61,2.56A.77.77,0,0,1,25.53,50.4Z" />
            <path style="fill: #f1f2f2;" d="M17.35,18.11a.83.83,0,0,1-.1.34c-.41.77-.8,1.55-1.15,2.33a.89.89,0,0,1-1.62-.73c.37-.82.78-1.64,1.21-2.44a.88.88,0,0,1,1.66.5Z" />
            <path style="fill: #f1f2f2;" d="M23.08,46.57a.89.89,0,0,1-1.76.08c-.17-.9-.32-1.78-.45-2.66a.89.89,0,0,1,1.76-.26c.12.86.27,1.72.43,2.59A1.06,1.06,0,0,1,23.08,46.57Z" />
            <path style="fill: #f1f2f2;" d="M17,22.55a.71.71,0,0,1-.06.25c-.31.8-.6,1.63-.85,2.45a.89.89,0,0,1-1.7-.53c.27-.86.57-1.73.9-2.57a.89.89,0,0,1,1.15-.5A.87.87,0,0,1,17,22.55Z" />
            <path style="fill: #f1f2f2;" d="M20.89,42.57a.87.87,0,0,1-.78.8.89.89,0,0,1-1-.78c-.1-.91-.19-1.81-.24-2.7a.89.89,0,0,1,1.77-.11c.05.86.13,1.73.23,2.61A.54.54,0,0,1,20.89,42.57Z" />
            <path style="fill: #f1f2f2;" d="M17.16,27l0,.14c-.21.84-.4,1.69-.56,2.54a.88.88,0,1,1-1.74-.32c.16-.89.36-1.79.58-2.66a.89.89,0,0,1,1.75.3Z" />
            <path style="fill: #f1f2f2;" d="M19,38.4a.89.89,0,0,1-1.77-.06c0-.91,0-1.82,0-2.71a.9.9,0,0,1,.92-.86.88.88,0,0,1,.86.91c0,.86,0,1.73,0,2.61A.41.41,0,0,1,19,38.4Z" />
            <path style="fill: #f1f2f2;" d="M17.86,31.42s0,0,0,0c-.11.85-.2,1.72-.27,2.59a.88.88,0,0,1-.94.82.89.89,0,0,1-.83-.95c.07-.91.16-1.81.29-2.7a.89.89,0,0,1,1.76.2Z" />
            <path style="fill: #f1f2f2;"
                d="M9.56,47.63a.29.29,0,0,0,0-.09c-.41-1.09-.78-2.2-1.09-3.29a.89.89,0,0,0-1.71.46v0c.33,1.14.71,2.29,1.14,3.44a.88.88,0,0,0,1.68-.54ZM7.19,37.45l0-.15a.89.89,0,0,0-.93-.66.9.9,0,0,0-.81.89v.07c0,.16,0,.3,0,.46h0c.1,1,.25,2.1.44,3.13a.89.89,0,0,0,1.75-.33A33.06,33.06,0,0,1,7.19,37.45Zm5.35,16.61a1,1,0,0,0-.08-.2c-.57-1-1.1-2.08-1.57-3.11a.89.89,0,1,0-1.61.75c.49,1.06,1,2.14,1.62,3.22a.89.89,0,0,0,1.64-.66ZM7.27,30.23a.89.89,0,0,0-1.74.12c-.14,1.2-.22,2.42-.24,3.62a.89.89,0,0,0,1.77,0c0-1.14.1-2.3.23-3.44A.72.72,0,0,0,7.27,30.23Zm9,29.85a.79.79,0,0,0-.13-.28c-.68-1-1.33-2-1.93-2.92a.89.89,0,0,0-1.51.94c.62,1,1.29,2,2,3a.87.87,0,0,0,1.23.22A.86.86,0,0,0,16.29,60.08ZM8.8,23.36c-.53.78-1,1.59-1.52,2.41-.34.58-.67,1.15-1,1.74a.92.92,0,0,0,.51.32.9.9,0,0,0,1.06-.68c.24-1.11.55-2.23.9-3.34A.87.87,0,0,0,8.8,23.36ZM20.6,65.71a1,1,0,0,0-.17-.34c-.57-.69-1.14-1.4-1.7-2.11l-.49-.64a.89.89,0,1,0-1.41,1.09l.51.64c.57.73,1.14,1.45,1.72,2.15a.89.89,0,0,0,1.25.12A.87.87,0,0,0,20.6,65.71ZM25.29,71a.76.76,0,0,0-.21-.38c-.79-.84-1.59-1.72-2.37-2.6a.89.89,0,0,0-1.33,1.17c.79.9,1.6,1.79,2.41,2.65a.89.89,0,0,0,1.5-.84Zm5.05,5a.9.9,0,0,0-.26-.42c-.85-.79-1.71-1.6-2.54-2.42a.89.89,0,1,0-1.25,1.26c.85.84,1.72,1.67,2.6,2.47a.89.89,0,0,0,1.25-.06A.88.88,0,0,0,30.34,76Zm5.42,4.58a.84.84,0,0,0-.31-.48c-.91-.7-1.83-1.45-2.73-2.21a.9.9,0,0,0-1.25.11.89.89,0,0,0,.11,1.25c.91.77,1.85,1.53,2.79,2.25a.88.88,0,0,0,1.24-.15A.9.9,0,0,0,35.76,80.59Zm5.8,4.08a.83.83,0,0,0-.38-.52c-1-.62-2-1.27-2.91-2a.89.89,0,1,0-1,1.45c1,.69,2,1.36,3,2a.89.89,0,0,0,1.22-.27A.9.9,0,0,0,41.56,84.67Zm6.17,3.5a.87.87,0,0,0-.46-.57c-1-.51-2.07-1.07-3.09-1.64a.88.88,0,0,0-1.21.33.89.89,0,0,0,.34,1.21c1,.59,2.11,1.16,3.17,1.69a.88.88,0,0,0,1.25-1ZM54.24,91a.87.87,0,0,0-.55-.6c-1.09-.39-2.18-.83-3.25-1.29a.89.89,0,0,0-1.17.46.9.9,0,0,0,.47,1.17c1.1.47,2.23.92,3.34,1.32a.89.89,0,0,0,1.14-.53A.87.87,0,0,0,54.24,91Zm6.81,2a.89.89,0,0,0-.67-.64c-1.12-.25-2.26-.54-3.38-.87a.88.88,0,0,0-1.1.6.87.87,0,0,0,.61,1.1c1.15.34,2.33.64,3.49.9a.88.88,0,0,0,1.06-.67A1,1,0,0,0,61.05,93Zm7,1.06a.9.9,0,0,0-.79-.65c-1.15-.1-2.31-.23-3.46-.41a.89.89,0,0,0-.27,1.76c1.19.18,2.4.32,3.59.41a.88.88,0,0,0,1-.81A1,1,0,0,0,68.06,94Zm7.07.06a.87.87,0,0,0-.91-.65c-1.15.07-2.32.1-3.48.09a.89.89,0,0,0,0,1.78c1.2,0,2.41,0,3.6-.1a.89.89,0,0,0,.83-.94A.57.57,0,0,0,75.13,94.08Zm7-.9a.09.09,0,0,1,0-.05.89.89,0,0,0-1-.64c-1.14.24-2.29.44-3.43.59a.89.89,0,0,0-.76,1,.87.87,0,0,0,1,.76q1.11-.15,2.22-.36c.45-.07.9-.16,1.34-.25a.44.44,0,0,0,.16-.06A.87.87,0,0,0,82.17,93.18Z" />
            <path style="fill: #f1f2f2;" d="M81.84,94.38a.89.89,0,0,1-.21,1.22l-.79.56c-.48.34-1,.66-1.44,1a.89.89,0,1,1-1-1.49c.47-.3.93-.61,1.39-.93.26-.18.52-.36.77-.55a.89.89,0,0,1,1.24.2Z" />
            <path style="fill: #f1f2f2;" d="M77.48,95.41l0,0a.88.88,0,0,1-.3,1.21c-.78.47-1.57.91-2.36,1.33A.89.89,0,0,1,74,96.43c.76-.4,1.53-.83,2.28-1.28A.88.88,0,0,1,77.48,95.41Z" />
            <path style="fill: #f1f2f2;"
                d="M73.05,96a.54.54,0,0,1,.07.13.88.88,0,0,1-.41,1.18c-.82.39-1.65.76-2.48,1.1A.88.88,0,0,1,69.07,98a.9.9,0,0,1,.48-1.16c.8-.33,1.61-.69,2.39-1.06A.89.89,0,0,1,73.05,96Z" />
            <path style="fill: #f1f2f2;"
                d="M68.58,96.27a.64.64,0,0,1,.11.2.89.89,0,0,1-.53,1.14c-.84.31-1.7.6-2.55.87a.9.9,0,0,1-1.12-.59.89.89,0,0,1,.59-1.11c.82-.25,1.66-.54,2.47-.84A.88.88,0,0,1,68.58,96.27Z" />
            <path style="fill: #f1f2f2;" d="M64.11,96.08a.72.72,0,0,1,.13.28.89.89,0,0,1-.62,1.09c-.87.23-1.75.44-2.63.63a.88.88,0,1,1-.37-1.73c.84-.18,1.7-.39,2.54-.62A.87.87,0,0,1,64.11,96.08Z" />
            <path style="fill: #f1f2f2;"
                d="M59.67,95.49a1.05,1.05,0,0,1,.15.36.88.88,0,0,1-.72,1c-.88.16-1.78.29-2.68.4a.87.87,0,0,1-1-.76.89.89,0,0,1,.77-1c.87-.11,1.74-.24,2.59-.39A.89.89,0,0,1,59.67,95.49Z" />
            <path style="fill: #f1f2f2;"
                d="M55.29,94.52a.8.8,0,0,1,.15.43.87.87,0,0,1-.8,1c-.88.08-1.79.14-2.7.18a.9.9,0,0,1-.92-.85.89.89,0,0,1,.85-.93c.88,0,1.76-.09,2.61-.17A.9.9,0,0,1,55.29,94.52Z" />
            <path style="fill: #f1f2f2;" d="M51,93.19a.85.85,0,0,1,.16.5.88.88,0,0,1-.88.89c-.9,0-1.81,0-2.7,0a.89.89,0,0,1,.07-1.77c.86,0,1.74,0,2.61,0A.85.85,0,0,1,51,93.19Z" />
            <path style="fill: #f1f2f2;" d="M46.84,91.52a.88.88,0,0,1-.78,1.39c-.9-.06-1.79-.14-2.69-.24a.89.89,0,1,1,.19-1.76c.88.1,1.75.17,2.62.23A.89.89,0,0,1,46.84,91.52Z" />
            <path style="fill: #f1f2f2;" d="M42.81,89.55a.92.92,0,0,1,.15.63.89.89,0,0,1-1,.76c-.89-.12-1.78-.26-2.66-.43a.88.88,0,1,1,.31-1.74c.87.16,1.73.29,2.59.41A.93.93,0,0,1,42.81,89.55Z" />
            <path style="fill: #f1f2f2;"
                d="M38.91,87.32a.85.85,0,0,1,.14.68.88.88,0,0,1-1,.69c-.88-.18-1.75-.38-2.63-.59A.88.88,0,0,1,34.73,87a.89.89,0,0,1,1.07-.66c.86.22,1.71.41,2.56.58A.87.87,0,0,1,38.91,87.32Z" />
            <path style="fill: #f1f2f2;" d="M35.16,84.83a.89.89,0,0,1-1,1.37l-2.58-.75a.89.89,0,0,1,.52-1.7c.85.26,1.69.51,2.53.74A.83.83,0,0,1,35.16,84.83Z" />
            <path style="fill: #f1f2f2;"
                d="M31.57,82.13a.92.92,0,0,1,.11.79.88.88,0,0,1-1.12.56c-.85-.28-1.69-.57-2.54-.89a.88.88,0,0,1-.52-1.13.89.89,0,0,1,1.14-.53c.82.31,1.65.59,2.48.87A.89.89,0,0,1,31.57,82.13Z" />
            <path style="fill: #f1f2f2;" d="M28.12,79.24a.92.92,0,0,1,.1.84.89.89,0,0,1-1.15.5q-1.25-.49-2.49-1a.89.89,0,1,1,.7-1.63c.81.34,1.62.68,2.44,1A.89.89,0,0,1,28.12,79.24Z" />
            <path style="fill: #f1f2f2;" d="M24.82,76.18a.87.87,0,0,1,.08.87.88.88,0,0,1-1.17.45q-1.21-.56-2.43-1.14a.88.88,0,0,1,.77-1.59c.8.38,1.59.75,2.39,1.11A.88.88,0,0,1,24.82,76.18Z" />
            <path style="fill: #f1f2f2;" d="M21.67,73a.89.89,0,0,1-1.13,1.3c-.79-.4-1.58-.81-2.37-1.24a.87.87,0,0,1-.36-1.2.89.89,0,0,1,1.2-.36c.78.42,1.56.83,2.34,1.22A1,1,0,0,1,21.67,73Z" />
            <path style="fill: #f1f2f2;"
                d="M18.67,69.61a.86.86,0,0,1,0,.94.88.88,0,0,1-1.2.34c-.78-.44-1.55-.88-2.33-1.34a.9.9,0,0,1-.31-1.22A.89.89,0,0,1,16.09,68q1.14.67,2.28,1.32A.87.87,0,0,1,18.67,69.61Z" />
            <path style="fill: #f1f2f2;"
                d="M15.81,66.13a.89.89,0,0,1,0,1,.88.88,0,0,1-1.21.28l-.39-.23c-.64-.4-1.27-.81-1.88-1.22a.88.88,0,1,1,1-1.47c.6.4,1.21.79,1.84,1.18l.38.24A1,1,0,0,1,15.81,66.13Z" />
            <path style="fill: #f1f2f2;" d="M13.14,62.52a.9.9,0,0,1,0,1,.89.89,0,0,1-1.24.2c-.75-.53-1.47-1.07-2.17-1.62a.89.89,0,1,1,1.1-1.39c.67.53,1.38,1,2.1,1.57A1,1,0,0,1,13.14,62.52Z" />
            <path style="fill: #f1f2f2;" d="M4.65,34.82a.84.84,0,0,1,.14.32c.19.84.41,1.68.66,2.5a.9.9,0,0,1-.6,1.11.88.88,0,0,1-1.1-.6c-.26-.86-.5-1.75-.69-2.63a.88.88,0,0,1,1.59-.7Z" />
            <path style="fill: #f1f2f2;" d="M10.76,58.73a.9.9,0,0,1,0,1.08.89.89,0,0,1-1.25.1c-.7-.59-1.38-1.19-2-1.8a.88.88,0,1,1,1.21-1.29c.62.58,1.28,1.17,1.95,1.74A1.29,1.29,0,0,1,10.76,58.73Z" />
            <path style="fill: #f1f2f2;" d="M4.36,39.38a.81.81,0,0,1,.1.21c.3.81.62,1.62,1,2.4a.89.89,0,0,1-1.62.73c-.37-.83-.72-1.68-1-2.53a.89.89,0,0,1,1.56-.81Z" />
            <path style="fill: #f1f2f2;" d="M8.72,54.74a.89.89,0,0,1-1.36,1.13c-.64-.65-1.26-1.32-1.84-2a.89.89,0,0,1,1.34-1.16C7.42,53.36,8,54,8.62,54.63A.52.52,0,0,1,8.72,54.74Z" />
            <path style="fill: #f1f2f2;" d="M4.65,44a.86.86,0,0,1,.07.1c.39.76.81,1.52,1.26,2.25a.89.89,0,0,1-1.51.93c-.47-.77-.92-1.57-1.33-2.37A.88.88,0,0,1,4.65,44Z" />
            <path style="fill: #f1f2f2;" d="M7.1,50.58a.89.89,0,0,1-1.43,1.05c-.49-.61-1-1.25-1.4-1.88l-.21-.31a.89.89,0,0,1,1.46-1h0l.2.29c.42.61.87,1.22,1.33,1.81Z" />
            <path style="fill: #f1f2f2;" d="M72.43,98.63a.31.31,0,0,1,0,.1.88.88,0,0,1-.36,1.2c-.8.42-1.61.82-2.42,1.2A.89.89,0,1,1,69,99.52c.78-.36,1.57-.75,2.34-1.16A.89.89,0,0,1,72.43,98.63Z" />
            <path style="fill: #f1f2f2;" d="M68,99.05a.51.51,0,0,1,.09.16.88.88,0,0,1-.47,1.16c-.83.35-1.67.68-2.52,1a.89.89,0,0,1-.6-1.67c.82-.29,1.64-.61,2.43-.94A.87.87,0,0,1,68,99.05Z" />
            <path style="fill: #f1f2f2;" d="M63.5,99.05a.9.9,0,0,1,.12.24A.88.88,0,0,1,63,100.4c-.85.27-1.73.52-2.6.74A.88.88,0,1,1,60,99.43c.84-.22,1.69-.46,2.51-.72A.88.88,0,0,1,63.5,99.05Z" />
            <path style="fill: #f1f2f2;" d="M59.05,98.64a.9.9,0,0,1,.13.32.89.89,0,0,1-.67,1.06c-.87.19-1.77.36-2.66.5a.89.89,0,0,1-.29-1.75c.86-.14,1.73-.3,2.57-.49A.92.92,0,0,1,59.05,98.64Z" />
            <path style="fill: #f1f2f2;"
                d="M54.63,97.84a.78.78,0,0,1,.15.39.89.89,0,0,1-.76,1c-.89.11-1.8.2-2.7.27a.88.88,0,0,1-1-.81.89.89,0,0,1,.82-1c.87-.06,1.75-.15,2.6-.26A.87.87,0,0,1,54.63,97.84Z" />
            <path style="fill: #f1f2f2;" d="M50.3,96.66a.88.88,0,0,1,.16.47.89.89,0,0,1-.85.93c-.88,0-1.79,0-2.7,0a.89.89,0,1,1,0-1.77c.87,0,1.76,0,2.62,0A.86.86,0,0,1,50.3,96.66Z" />
            <path style="fill: #f1f2f2;" d="M46.08,95.14a.86.86,0,0,1,.16.54.89.89,0,0,1-.92.86c-.89,0-1.79-.09-2.69-.16a.89.89,0,0,1,.14-1.77c.87.07,1.75.12,2.62.15A.87.87,0,0,1,46.08,95.14Z" />
            <path style="fill: #f1f2f2;" d="M42,93.3a.86.86,0,0,1,.15.61.89.89,0,0,1-1,.78c-.88-.09-1.78-.21-2.67-.34a.89.89,0,0,1,.26-1.76c.87.13,1.74.25,2.61.34A.9.9,0,0,1,42,93.3Z" />
            <path style="fill: #f1f2f2;" d="M38,91.18a.88.88,0,0,1-.88,1.38c-.88-.16-1.76-.33-2.64-.52A.89.89,0,0,1,33.83,91a.87.87,0,0,1,1.05-.67c.86.18,1.72.35,2.58.5A.9.9,0,0,1,38,91.18Z" />
            <path style="fill: #f1f2f2;" d="M34.22,88.8a.88.88,0,0,1-.94,1.37c-.86-.21-1.73-.44-2.6-.69a.88.88,0,1,1,.48-1.7q1.27.36,2.55.66A.94.94,0,0,1,34.22,88.8Z" />
            <path style="fill: #f1f2f2;"
                d="M30.56,86.19a.9.9,0,0,1,.12.77.88.88,0,0,1-1.11.58c-.85-.26-1.7-.54-2.56-.83a.88.88,0,0,1-.55-1.12A.9.9,0,0,1,27.59,85c.83.29,1.67.56,2.5.82A.86.86,0,0,1,30.56,86.19Z" />
            <path style="fill: #f1f2f2;"
                d="M27.05,83.38a.86.86,0,0,1,.1.81.88.88,0,0,1-1.13.53c-.84-.31-1.68-.63-2.51-1A.88.88,0,0,1,23,82.59a.89.89,0,0,1,1.15-.49c.82.33,1.64.65,2.46,1A.92.92,0,0,1,27.05,83.38Z" />
            <path style="fill: #f1f2f2;"
                d="M23.69,80.38a.9.9,0,0,1,.09.86.89.89,0,0,1-1.16.47c-.82-.35-1.64-.72-2.46-1.09a.9.9,0,0,1-.44-1.18A.89.89,0,0,1,20.9,79c.8.36,1.61.72,2.41,1.06A.9.9,0,0,1,23.69,80.38Z" />
            <path style="fill: #f1f2f2;" d="M20.48,77.23a.86.86,0,0,1,.07.89.88.88,0,0,1-1.18.41q-1.2-.59-2.4-1.2a.88.88,0,1,1,.81-1.57c.79.4,1.57.8,2.36,1.18A.8.8,0,0,1,20.48,77.23Z" />
            <path style="fill: #f1f2f2;" d="M17.42,73.93a.89.89,0,0,1,0,.92.87.87,0,0,1-1.2.36c-.78-.42-1.57-.85-2.35-1.3a.89.89,0,1,1,.88-1.54c.77.44,1.54.87,2.31,1.28A.93.93,0,0,1,17.42,73.93Z" />
            <path style="fill: #f1f2f2;" d="M14.5,70.5a.88.88,0,0,1-1.18,1.26c-.66-.38-1.31-.78-2-1.19l-.32-.2a.89.89,0,1,1,.94-1.5l.32.2c.64.4,1.29.79,1.93,1.17A.88.88,0,0,1,14.5,70.5Z" />
            <path style="fill: #f1f2f2;" d="M3.62,39.22a.9.9,0,0,1,.13.32c.19.86.4,1.71.63,2.53a.88.88,0,0,1-1.7.48c-.25-.85-.47-1.74-.66-2.64a.88.88,0,0,1,.68-1A.9.9,0,0,1,3.62,39.22Z" />
            <path style="fill: #f1f2f2;" d="M11.75,67a.89.89,0,0,1,0,1,.9.9,0,0,1-1.24.23c-.75-.51-1.48-1-2.19-1.59a.89.89,0,0,1,1.08-1.41c.68.52,1.39,1,2.12,1.53A.8.8,0,0,1,11.75,67Z" />
            <path style="fill: #f1f2f2;" d="M9.32,63.19a.87.87,0,0,1,0,1.07A.89.89,0,0,1,8,64.38c-.7-.59-1.39-1.2-2-1.81a.88.88,0,1,1,1.21-1.29c.63.59,1.28,1.17,2,1.73A.86.86,0,0,1,9.32,63.19Z" />
            <path style="fill: #f1f2f2;" d="M3.25,43.78a.94.94,0,0,1,.12.22c.27.82.58,1.64.91,2.42a.89.89,0,0,1-1.63.69c-.35-.82-.67-1.68-1-2.54a.88.88,0,0,1,1.56-.79Z" />
            <path style="fill: #f1f2f2;"
                d="M7.29,59.21a.87.87,0,0,1-.11,1.14.88.88,0,0,1-1.25,0c-.63-.66-1.25-1.34-1.82-2a.89.89,0,0,1,.11-1.25.87.87,0,0,1,1.24.11c.56.65,1.14,1.3,1.74,1.93A.31.31,0,0,1,7.29,59.21Z" />
            <path style="fill: #f1f2f2;" d="M3.44,48.34a.75.75,0,0,1,.07.12c.38.78.79,1.55,1.22,2.29A.89.89,0,0,1,4.4,52a.88.88,0,0,1-1.21-.32c-.45-.78-.88-1.59-1.27-2.4a.89.89,0,0,1,1.52-.9Z" />
            <path style="fill: #f1f2f2;" d="M5.73,55a.89.89,0,0,1-1.44,1c-.55-.73-1.07-1.48-1.56-2.23A.88.88,0,0,1,3,52.61a.89.89,0,0,1,1.22.26c.47.72,1,1.43,1.5,2.12C5.71,55,5.72,55,5.73,55Z" />
            <path style="fill: #f1f2f2;" d="M90.16,88.64S59.07,91,37.07,72,10.26,21.74,12.17,18.87,9.07,23,9.07,23s1,31,25,51S87.22,91.58,87.22,91.58Z" />
            <path style="fill: #f1f2f2;opacity:0.1" d="M68.56,32.09s-46.84,28.63-52,57.4L22,93.93s45-64.54,48.06-61.84Z" />
            <path style="fill: #f1f2f2;opacity:0.1"
                d="M63.06,56.55h.62c-1.36.61-5.45,6.14-10.26,13.17l-1.06,1.55-2,2.9-1,1.57L47.18,79c-.59.9-1.18,1.8-1.76,2.7-1.63,2.48-3.21,4.92-4.68,7.21l-1,1.63-1.31,2-.64,1C35.66,96.91,34,99.56,33,101.08a47.62,47.62,0,0,1-4.5-2,33.16,33.16,0,0,1,3.14-9.28c.26-.54.54-1.07.84-1.61.38-.7.78-1.4,1.2-2.09.32-.52.65-1,1-1.56a73.43,73.43,0,0,1,4.76-6.42c.7-.86,1.43-1.7,2.16-2.52,1.08-1.21,2.17-2.39,3.29-3.52.41-.44.84-.87,1.27-1.29.77-.77,1.54-1.51,2.3-2.24l1.32-1.22A132.91,132.91,0,0,1,63.06,56.55Z" />
            <path style="fill: #f1f2f2;opacity:0.1" d="M64.06,56.55h-.38C63.85,56.47,64,56.47,64.06,56.55Z" />
            <ellipse style="isolation: isolate;fill:#468080;" cx="64.57" cy="21" rx="5" ry="7.5" transform="translate(22.11 73.99) rotate(-69.31)" />
            <ellipse style="isolation: isolate;fill:#468080;" cx="84.07" cy="40.5" rx="8.5" ry="15" transform="translate(-7.8 56.89) rotate(-35.84)" />
        </g>
    </g>
</svg>